<svg width="94" height="32" viewBox="0 0 94 32" fill="none" xmlns="http://www.w3.org/2000/svg">
<path d="M75.5864 9.33332C74.8138 9.59999 74.1699 10.2667 74.0412 10.9333L72.2384 17.3333L71.8521 15.7333C71.5946 14.8 70.6932 14.2667 69.7918 14.5333C68.8905 14.8 68.3754 15.7333 68.6329 16.6667L69.6631 20.2667C69.9206 21.2 70.822 21.7333 71.7234 21.4667C72.3672 21.3333 72.7535 20.8 72.8823 20.2667L74.5562 14L76.1014 19.7333C76.4877 21.0667 77.7754 21.7333 78.9343 21.3333C79.7069 21.0667 80.3508 20.4 80.4795 19.7333L83.8275 7.59999L87.0466 19.0667C87.5617 20.8 89.3644 21.8667 91.0384 21.3333C92.7124 20.8 93.7425 18.9333 93.2275 17.2L89.2357 3.06666C88.7206 1.33332 86.9179 0.266658 85.2439 0.799991C84.085 1.06666 83.3124 1.99999 83.0549 3.19999L79.7069 15.4667L78.4192 10.9333C78.1617 9.73333 76.874 8.93332 75.5864 9.33332Z" fill="white"/>
<path fill-rule="evenodd" clip-rule="evenodd" d="M69.4107 29.3333L69.1982 29.8867L69.0695 30.2573H69.0515L68.9227 29.8867L68.7076 29.3333H68.3716V30.8107H68.6278V30.1573L68.5956 29.6573H68.6162L68.951 30.5813H69.1673L69.5034 29.6573H69.5202L69.4893 30.1573V30.8107H69.7416V29.3333H69.4107ZM66.959 29.3333V29.5907H67.4135V30.8107H67.6891V29.5907H68.1501V29.3333H66.959Z" fill="white"/>
<path fill-rule="evenodd" clip-rule="evenodd" d="M66.5725 19.7333C66.5725 20.8 66.315 21.4667 64.8986 21.4667C63.4821 21.4667 63.2246 20.6667 63.2246 19.7333V19.6C63.2246 18.6667 63.4821 17.8667 64.8986 17.8667C66.315 18.1333 66.5725 18.8 66.5725 19.7333ZM62.1945 31.4667C61.2931 31.4667 60.3917 31.3333 59.7479 30.6667C58.7178 29.7333 58.589 28.4 58.589 27.2V21.3333H56.915C56.1424 21.3333 55.8849 21.2 55.8849 19.7333C55.8849 18.2667 56.1424 18.1333 56.915 18.1333H58.589V15.8667C58.589 14.8 58.7178 14.5333 60.3917 14.5333C62.0657 14.5333 62.1945 14.8 62.1945 15.8667V26.5333C62.1945 27.6 62.3232 27.8667 62.7095 28.1333C63.2246 28.5333 64.126 28.2667 65.0274 28.1333C65.6712 28 65.6712 28.4 65.9287 29.3333C66.0575 30.4 66.0575 30.8 65.4137 30.9333C64.7698 31.0667 63.6109 31.4667 62.1945 31.4667ZM46.0986 21.4667C45.4547 21.6 45.4547 21.3333 45.1972 20.2667C45.0684 19.2 45.0684 18.9333 45.7123 18.6667C45.9698 18.6667 47.6438 18 50.0904 18C52.5369 18 53.8246 19.3333 54.2109 20.5333C54.726 21.8667 54.5972 22.5333 54.5972 24.5333C54.5972 25.0667 54.5972 28.8 54.5972 29.3333C54.5972 30.1333 54.2109 30.4 53.6958 30.6667C53.1808 30.9333 51.6356 31.4667 49.7041 31.4667C46.6136 31.4667 44.1671 30.5333 44.1671 27.3333C44.1671 24.2667 46.2273 23.2 49.189 23.2C49.8328 23.2 50.4767 23.2 51.1205 23.3333V22.6667C51.1205 21.4667 50.6054 20.8 49.0602 20.8C48.1589 20.9333 46.2273 21.4667 46.0986 21.4667ZM49.8328 28.9333C50.3479 28.9333 50.863 28.8 51.2493 28.6667C51.2493 28.6667 51.2493 28.6667 51.2493 28.5333V26C51.2493 26 51.2493 25.8667 51.1205 25.8667C50.4767 25.7333 50.0904 25.7333 49.5753 25.7333C48.4164 25.7333 47.515 26 47.515 27.3333C47.6438 28.5333 48.4164 28.9333 49.8328 28.9333ZM41.463 30.5333C40.8191 31.0667 39.6602 31.6 38.115 31.6C36.0547 31.6 34.1232 30.9333 34.1232 30.9333C33.4794 30.6667 33.4794 30.5333 33.6082 29.4667C33.7369 28.4 33.8657 28 34.5095 28.1333C35.4109 28.2667 36.9561 28.8 37.8575 28.8C38.6301 28.8 39.1452 28.5333 39.2739 27.7333C39.2739 26.9333 38.6301 26.4 37.3424 26.1333C35.7972 25.7333 33.7369 24.9333 33.6082 22.1333C33.6082 20 35.1534 18.2667 37.8575 18.2667C39.9178 18.2667 40.9479 18.6667 41.5917 18.9333C42.2356 19.0667 42.2356 19.4667 41.978 20.5333C41.7205 21.6 41.7205 21.8667 41.0767 21.7333C40.4328 21.6 39.2739 21.2 38.115 21.2C37.5999 21.2 36.9561 21.4667 36.9561 22.1333C36.9561 22.9333 37.7287 23.0667 38.6301 23.4667C39.9178 24 40.8191 24.2667 41.463 24.9333C42.3643 25.7333 42.6219 26.5333 42.6219 27.4667C42.8794 28.6667 42.3643 29.8667 41.463 30.5333ZM23.178 21.4667C22.5342 21.6 22.5342 21.3333 22.2767 20.2667C22.0191 19.2 22.0191 18.8 22.663 18.6667C22.9205 18.6667 24.5945 18 27.041 18C29.4876 18 30.7753 19.3333 31.1616 20.5333C31.6767 21.8667 31.5479 22.5333 31.5479 24.5333C31.5479 25.0667 31.5479 28.8 31.5479 29.3333C31.5479 30.1333 31.1616 30.4 30.6465 30.6667C30.1315 30.9333 28.5862 31.4667 26.6547 31.4667C23.5643 31.4667 21.1178 30.5333 21.1178 27.3333C21.1178 24.2667 23.178 23.2 26.1397 23.2C26.7835 23.2 27.4273 23.2 28.0712 23.3333V22.6667C28.0712 21.4667 27.5561 20.8 26.0109 20.8C25.2383 20.9333 23.178 21.4667 23.178 21.4667ZM26.7835 28.9333C27.2986 28.9333 27.8136 28.8 28.1999 28.6667C28.1999 28.6667 28.1999 28.6667 28.1999 28.5333V26C28.1999 26 28.1999 25.8667 28.0712 25.8667C27.4273 25.7333 27.041 25.7333 26.526 25.7333C25.3671 25.7333 24.4657 26 24.4657 27.3333C24.5945 28.5333 25.3671 28.9333 26.7835 28.9333ZM17.2547 31.4667C15.5808 31.4667 15.452 31.2 15.452 30.1333V19.6C15.452 18.5333 15.5808 18.2667 17.2547 18.2667C18.9287 18.2667 19.0575 18.5333 19.0575 19.6V30.1333C19.0575 31.2 18.9287 31.4667 17.2547 31.4667ZM12.3616 14.6667C10.8164 14.6667 10.5589 14.9333 10.3013 16L7.33967 27.4667L4.37803 16C4.1205 14.9333 3.86296 14.6667 2.31776 14.6667C0.772551 14.6667 0.515017 14.9333 0.772551 16L4.76433 30.1333C5.15063 31.2 5.79447 31.4667 7.46844 31.4667C9.14241 31.4667 9.78625 31.2 10.1726 30.1333L14.1643 16C14.1643 14.9333 13.9068 14.6667 12.3616 14.6667Z" fill="white"/>
</svg>
