<svg width="94" height="32" viewBox="0 0 94 32" fill="none" xmlns="http://www.w3.org/2000/svg">
<path d="M75.5863 9.33345C74.8137 9.60011 74.1699 10.2668 74.0411 10.9334L72.2384 17.3334L71.8521 15.7334C71.5945 14.8001 70.6932 14.2668 69.7918 14.5334C68.8904 14.8001 68.3753 15.7334 68.6329 16.6668L69.663 20.2668C69.9206 21.2001 70.8219 21.7334 71.7233 21.4668C72.3671 21.3334 72.7534 20.8001 72.8822 20.2668L74.5562 14.0001L76.1014 19.7334C76.4877 21.0668 77.7753 21.7334 78.9343 21.3334C79.7069 21.0668 80.3507 20.4001 80.4795 19.7334L83.8274 7.60011L87.0466 19.0668C87.5616 20.8001 89.3644 21.8668 91.0384 21.3334C92.7123 20.8001 93.7425 18.9334 93.2274 17.2001L89.2356 3.06678C88.7206 1.33345 86.9178 0.26678 85.2438 0.800113C84.0849 1.06678 83.3123 2.00011 83.0548 3.20011L79.7069 15.4668L78.4192 10.9334C78.1616 9.73345 76.874 8.93345 75.5863 9.33345Z" fill="url(#paint0_linear)"/>
<path fill-rule="evenodd" clip-rule="evenodd" d="M69.4107 29.3335L69.1982 29.8868L69.0694 30.2575H69.0514L68.9226 29.8868L68.7076 29.3335H68.3715V30.8108H68.6277V30.1575L68.5956 29.6575H68.6162L68.951 30.5815H69.1673L69.5034 29.6575H69.5201L69.4892 30.1575V30.8108H69.7416V29.3335H69.4107ZM66.9589 29.3335V29.5908H67.4135V30.8108H67.689V29.5908H68.15V29.3335H66.9589Z" fill="#141D24"/>
<path fill-rule="evenodd" clip-rule="evenodd" d="M66.5726 19.7332C66.5726 20.7999 66.3151 21.4665 64.8986 21.4665C63.4822 21.4665 63.2247 20.6665 63.2247 19.7332V19.5999C63.2247 18.6665 63.4822 17.8665 64.8986 17.8665C66.3151 18.1332 66.5726 18.7999 66.5726 19.7332ZM62.1945 31.4665C61.2932 31.4665 60.3918 31.3332 59.748 30.6665C58.7178 29.7332 58.5891 28.3999 58.5891 27.1999V21.3332H56.9151C56.1425 21.3332 55.8849 21.1999 55.8849 19.7332C55.8849 18.2665 56.1425 18.1332 56.9151 18.1332H58.5891V15.8665C58.5891 14.7999 58.7178 14.5332 60.3918 14.5332C62.0658 14.5332 62.1945 14.7999 62.1945 15.8665V26.5332C62.1945 27.5999 62.3233 27.8665 62.7096 28.1332C63.2247 28.5332 64.126 28.2665 65.0274 28.1332C65.6712 27.9999 65.6712 28.3999 65.9288 29.3332C66.0575 30.3999 66.0575 30.7999 65.4137 30.9332C64.7699 31.0665 63.611 31.4665 62.1945 31.4665ZM46.0986 21.4665C45.4548 21.5999 45.4548 21.3332 45.1973 20.2665C45.0685 19.1999 45.0685 18.9332 45.7123 18.6665C45.9699 18.6665 47.6438 17.9999 50.0904 17.9999C52.537 17.9999 53.8247 19.3332 54.211 20.5332C54.726 21.8665 54.5973 22.5332 54.5973 24.5332C54.5973 25.0665 54.5973 28.7999 54.5973 29.3332C54.5973 30.1332 54.211 30.3999 53.6959 30.6665C53.1808 30.9332 51.6356 31.4665 49.7041 31.4665C46.6137 31.4665 44.1671 30.5332 44.1671 27.3332C44.1671 24.2665 46.2274 23.1999 49.1891 23.1999C49.8329 23.1999 50.4767 23.1999 51.1206 23.3332V22.6665C51.1206 21.4665 50.6055 20.7999 49.0603 20.7999C48.1589 20.9332 46.2274 21.4665 46.0986 21.4665ZM49.8329 28.9332C50.348 28.9332 50.863 28.7999 51.2493 28.6665C51.2493 28.6665 51.2493 28.6665 51.2493 28.5332V25.9999C51.2493 25.9999 51.2493 25.8665 51.1206 25.8665C50.4767 25.7332 50.0904 25.7332 49.5754 25.7332C48.4164 25.7332 47.5151 25.9999 47.5151 27.3332C47.6438 28.5332 48.4164 28.9332 49.8329 28.9332ZM41.463 30.5332C40.8192 31.0665 39.6603 31.5999 38.1151 31.5999C36.0548 31.5999 34.1233 30.9332 34.1233 30.9332C33.4795 30.6665 33.4795 30.5332 33.6082 29.4665C33.737 28.3999 33.8658 27.9999 34.5096 28.1332C35.411 28.2665 36.9562 28.7999 37.8575 28.7999C38.6301 28.7999 39.1452 28.5332 39.274 27.7332C39.274 26.9332 38.6301 26.3999 37.3425 26.1332C35.7973 25.7332 33.737 24.9332 33.6082 22.1332C33.6082 19.9999 35.1534 18.2665 37.8575 18.2665C39.9178 18.2665 40.948 18.6665 41.5918 18.9332C42.2356 19.0665 42.2356 19.4665 41.9781 20.5332C41.7206 21.5999 41.7206 21.8665 41.0767 21.7332C40.4329 21.5999 39.274 21.1999 38.1151 21.1999C37.6 21.1999 36.9562 21.4665 36.9562 22.1332C36.9562 22.9332 37.7288 23.0665 38.6301 23.4665C39.9178 23.9999 40.8192 24.2665 41.463 24.9332C42.3644 25.7332 42.6219 26.5332 42.6219 27.4665C42.8795 28.6665 42.3644 29.8665 41.463 30.5332ZM23.1781 21.4665C22.5343 21.5999 22.5343 21.3332 22.2767 20.2665C22.0192 19.1999 22.0192 18.7999 22.663 18.6665C22.9206 18.6665 24.5945 17.9999 27.0411 17.9999C29.4877 17.9999 30.7753 19.3332 31.1617 20.5332C31.6767 21.8665 31.548 22.5332 31.548 24.5332C31.548 25.0665 31.548 28.7999 31.548 29.3332C31.548 30.1332 31.1617 30.3999 30.6466 30.6665C30.1315 30.9332 28.5863 31.4665 26.6548 31.4665C23.5644 31.4665 21.1178 30.5332 21.1178 27.3332C21.1178 24.2665 23.1781 23.1999 26.1397 23.1999C26.7836 23.1999 27.4274 23.1999 28.0712 23.3332V22.6665C28.0712 21.4665 27.5562 20.7999 26.011 20.7999C25.2384 20.9332 23.1781 21.4665 23.1781 21.4665ZM26.7836 28.9332C27.2986 28.9332 27.8137 28.7999 28.2 28.6665C28.2 28.6665 28.2 28.6665 28.2 28.5332V25.9999C28.2 25.9999 28.2 25.8665 28.0712 25.8665C27.4274 25.7332 27.0411 25.7332 26.526 25.7332C25.3671 25.7332 24.4658 25.9999 24.4658 27.3332C24.5945 28.5332 25.3671 28.9332 26.7836 28.9332ZM17.2548 31.4665C15.5808 31.4665 15.4521 31.1999 15.4521 30.1332V19.5999C15.4521 18.5332 15.5808 18.2665 17.2548 18.2665C18.9288 18.2665 19.0575 18.5332 19.0575 19.5999V30.1332C19.0575 31.1999 18.9288 31.4665 17.2548 31.4665ZM12.3617 14.6665C10.8164 14.6665 10.5589 14.9332 10.3014 15.9999L7.33974 27.4665L4.37809 15.9999C4.12056 14.9332 3.86302 14.6665 2.31782 14.6665C0.772612 14.6665 0.515078 14.9332 0.772612 15.9999L4.76439 30.1332C5.15069 31.1999 5.79453 31.4665 7.4685 31.4665C9.14248 31.4665 9.78631 31.1999 10.1726 30.1332L14.1644 15.9999C14.1644 14.9332 13.9069 14.6665 12.3617 14.6665Z" fill="#141D24"/>
<defs>
<linearGradient id="paint0_linear" x1="72.297" y1="26.404" x2="94.4324" y2="17.7386" gradientUnits="userSpaceOnUse">
<stop stop-color="#24343C"/>
<stop offset="0.0351178" stop-color="#263942"/>
<stop offset="0.0810782" stop-color="#2B4652"/>
<stop offset="0.1331" stop-color="#2A5668"/>
<stop offset="0.1895" stop-color="#036885"/>
<stop offset="0.2488" stop-color="#0077A3"/>
<stop offset="0.28" stop-color="#007EB5"/>
<stop offset="0.3259" stop-color="#0082BB"/>
<stop offset="0.3975" stop-color="#008ECB"/>
<stop offset="0.48" stop-color="#009FE3"/>
<stop offset="0.5127" stop-color="#00A7CE"/>
<stop offset="0.5633" stop-color="#01B3B1"/>
<stop offset="0.6163" stop-color="#68BE94"/>
<stop offset="0.6708" stop-color="#8EC676"/>
<stop offset="0.727" stop-color="#A7CC58"/>
<stop offset="0.7857" stop-color="#B9D13B"/>
<stop offset="0.8477" stop-color="#C5D41F"/>
<stop offset="0.9156" stop-color="#CCD600"/>
<stop offset="1" stop-color="#CED700"/>
</linearGradient>
</defs>
</svg>
